<?xml version="1.0" encoding="utf-8"?>
<!-- Generator: Adobe Illustrator 21.1.0, SVG Export Plug-In . SVG Version: 6.00 Build 0)  -->
<svg version="1.1" id="Camada_1" xmlns="http://www.w3.org/2000/svg" xmlns:xlink="http://www.w3.org/1999/xlink" x="0px" y="0px"
	 viewBox="0 0 328 88.1" style="enable-background:new 0 0 328 88.1;" xml:space="preserve">
<style type="text/css">
	.st0{fill:#1E1E1E;}
	.st1{fill:#646478;}
	.st2{fill:#008200;}
</style>
<g id="Group_10" transform="translate(-344 -1199)">
	<g id="Group_3" transform="translate(767.869 1229.835)">
		<g id="Group_1">
			<path id="Path_1" class="st0" d="M-300.1,0.3h-26.7v-6.2h33V7.3c0,1.9-0.3,3.7-0.9,5.5c-0.5,1.5-1.4,2.9-2.6,4.1
				c-1.2,1.2-2.6,2-4.1,2.6c-1.8,0.6-3.7,0.9-5.5,0.9h-20v-16h6.4v9.8h13.5c4.6,0,6.9-2.3,6.9-6.9L-300.1,0.3L-300.1,0.3z"/>
			<path id="Path_2" class="st0" d="M-279.8,4.3h14.9c1.1,0.1,2.2-0.3,3-1c0.8-0.8,1.3-1.9,1.4-3h-22.3v20h-6.4V-5.9h34.8v5
				c0,6.6-3.2,10.2-9.6,10.9l10,10.3h-7.7l-10.1-10.1h-8L-279.8,4.3L-279.8,4.3z"/>
			<path id="Path_3" class="st0" d="M-216.8-5.9V7.3c0,1.9-0.3,3.7-0.9,5.5c-0.5,1.5-1.4,2.9-2.6,4.1c-1.2,1.2-2.6,2-4.1,2.6
				c-1.8,0.6-3.7,0.9-5.5,0.9h-21.7V7.2c0-1.8,0.3-3.7,0.9-5.4c0.5-1.5,1.4-2.9,2.6-4.1c1.2-1.2,2.6-2.1,4.1-2.6
				c1.8-0.6,3.6-0.9,5.5-0.9L-216.8-5.9z M-223.1,0.3h-15.2c-1.1,0-2.2,0.1-3.3,0.3c-0.8,0.2-1.5,0.6-2.1,1.1
				c-0.6,0.6-0.9,1.3-1.1,2.1c-0.2,1.1-0.4,2.2-0.3,3.4V14h15.2c1.1,0,2.2-0.1,3.2-0.3c0.8-0.2,1.5-0.6,2.1-1.1
				c0.6-0.6,1-1.3,1.2-2.1c0.3-1.1,0.4-2.2,0.4-3.4L-223.1,0.3z"/>
			<path id="Path_4" class="st0" d="M-212.2-5.9h26.3c1.8,0,3.6,0.3,5.3,0.9c1.5,0.5,2.9,1.4,4.1,2.5c1.1,1.1,2.1,2.4,2.7,3.8
				c0.6,1.5,1,3.2,0.9,4.9v14.2h-6.4V7.2c0-4.6-2.2-6.9-6.7-6.9h-19.9v20h-6.3V-5.9z M-196.1,3.5h6.4v16.8h-6.4V3.5z"/>
			<path id="Path_5" class="st0" d="M-161.6,20.3h-6.4V-5.9h6.4V20.3z"/>
			<path id="Path_6" class="st0" d="M-121.2,20.3h-6.7c-3.1-4.4-6.7-8.4-10.6-12.1c-3-2.8-6.5-5.1-10.3-6.7
				c-0.3-0.1-0.5-0.2-0.8-0.3c-0.3-0.1-0.6-0.2-0.9-0.4c0.1,0.9,0.1,1.6,0.1,1.8v17.6h-6.2V-5.9h5.5c2.1,0.7,4.2,1.6,6.1,2.6
				c2,1.1,4,2.3,5.9,3.7c1.9,1.4,3.8,2.9,5.5,4.5c1.8,1.6,3.5,3.3,5.1,5.1l1.2,1.2c-0.1-0.8-0.1-1.4-0.1-1.7V-5.9h6.2L-121.2,20.3z"
				/>
			<path id="Path_7" class="st0" d="M-109.9,20.3h-6.4V-5.9h6.4V20.3z"/>
		</g>
		<g id="Group_2" transform="translate(50.234 34.837)">
			<path id="Path_8" class="st1" d="M-317.9-0.6c0,0.7-0.1,1.4-0.4,2.1c-0.2,0.6-0.6,1.2-1,1.6c-0.4,0.5-1,0.8-1.6,1
				c-0.7,0.3-1.4,0.4-2.1,0.4h-3.8V-5.7h3.8c0.7,0,1.4,0.1,2.1,0.4c0.6,0.2,1.1,0.6,1.6,1c0.4,0.5,0.8,1,1,1.6
				C-318-2-317.9-1.3-317.9-0.6z M-319.3-0.6c0-0.6-0.1-1.1-0.3-1.7c-0.2-0.5-0.4-0.9-0.7-1.3c-0.3-0.4-0.7-0.6-1.1-0.8
				c-0.5-0.2-1-0.3-1.5-0.3h-2.4v8h2.4c0.5,0,1-0.1,1.5-0.3c0.4-0.2,0.8-0.4,1.1-0.8c0.3-0.4,0.6-0.8,0.7-1.3
				C-319.4,0.5-319.3,0-319.3-0.6z"/>
			<path id="Path_9" class="st1" d="M-308.2-5.7v1.1h-4.9v3.4h4v1.1h-4v3.5h4.9v1.1h-6.3V-5.7L-308.2-5.7L-308.2-5.7z"/>
			<path id="Path_10" class="st1" d="M-299.6-4.1c0,0.1-0.1,0.1-0.1,0.2c-0.1,0-0.1,0.1-0.2,0.1c-0.1,0-0.2-0.1-0.3-0.1
				c-0.1-0.1-0.3-0.2-0.4-0.3c-0.2-0.1-0.4-0.2-0.6-0.3c-0.3-0.1-0.6-0.1-0.8-0.1c-0.3,0-0.6,0-0.8,0.1c-0.2,0.1-0.4,0.2-0.6,0.3
				c-0.2,0.1-0.3,0.3-0.4,0.5c-0.1,0.2-0.1,0.4-0.1,0.6c0,0.3,0.1,0.5,0.2,0.7c0.1,0.2,0.3,0.4,0.5,0.5c0.2,0.1,0.5,0.3,0.8,0.4
				c0.3,0.1,0.6,0.2,0.9,0.3c0.3,0.1,0.6,0.2,0.9,0.4c0.3,0.1,0.5,0.3,0.8,0.5c0.2,0.2,0.4,0.5,0.5,0.7c0.1,0.3,0.2,0.7,0.2,1.1
				c0,0.4-0.1,0.9-0.2,1.3c-0.2,0.4-0.4,0.7-0.7,1c-0.3,0.3-0.7,0.5-1.1,0.7c-0.5,0.2-1,0.3-1.5,0.3c-0.6,0-1.2-0.1-1.8-0.4
				c-0.5-0.2-1-0.5-1.4-1l0.4-0.6c0-0.1,0.1-0.1,0.1-0.1c0.1,0,0.1-0.1,0.2-0.1c0.1,0,0.2,0,0.2,0.1c0.1,0.1,0.2,0.1,0.3,0.2
				c0.1,0.1,0.2,0.2,0.4,0.3c0.1,0.1,0.3,0.2,0.5,0.3c0.2,0.1,0.4,0.1,0.5,0.2c0.2,0.1,0.5,0.1,0.7,0.1c0.3,0,0.6,0,0.9-0.1
				c0.2-0.1,0.5-0.2,0.6-0.4c0.2-0.2,0.3-0.4,0.4-0.6c0.1-0.2,0.1-0.5,0.1-0.8c0-0.3-0.1-0.6-0.2-0.8c-0.1-0.2-0.3-0.4-0.5-0.5
				c-0.2-0.1-0.5-0.3-0.8-0.3c-0.3-0.1-0.6-0.2-0.9-0.3c-0.3-0.1-0.6-0.2-0.9-0.3c-0.3-0.1-0.5-0.3-0.8-0.5
				c-0.2-0.2-0.4-0.5-0.5-0.8c-0.2-0.4-0.2-0.7-0.2-1.1c0-0.4,0.1-0.7,0.2-1c0.1-0.3,0.4-0.6,0.6-0.9c0.3-0.3,0.6-0.5,1-0.6
				c0.4-0.2,0.9-0.2,1.4-0.2c0.5,0,1.1,0.1,1.6,0.3c0.4,0.2,0.9,0.5,1.2,0.8L-299.6-4.1z"/>
			<path id="Path_11" class="st1" d="M-294.3,4.5h-1.4V-5.7h1.4V4.5z"/>
			<path id="Path_12" class="st1" d="M-283.6,4.3c-0.6,0.2-1.3,0.3-1.9,0.3c-0.8,0-1.5-0.1-2.2-0.4c-0.6-0.2-1.2-0.6-1.7-1.1
				c-0.5-0.5-0.8-1-1.1-1.7c-0.3-0.7-0.4-1.4-0.4-2.1c0-0.7,0.1-1.4,0.4-2.1c0.2-0.6,0.6-1.2,1-1.7c0.5-0.5,1-0.8,1.6-1.1
				c0.7-0.3,1.4-0.4,2.2-0.4c0.4,0,0.8,0,1.1,0.1c0.3,0,0.7,0.1,1,0.3c0.3,0.1,0.6,0.2,0.8,0.4c0.3,0.2,0.5,0.3,0.7,0.5l-0.4,0.6
				c-0.1,0.1-0.1,0.2-0.2,0.2c-0.1,0-0.2,0-0.3-0.1c-0.1-0.1-0.3-0.2-0.4-0.3c-0.2-0.1-0.4-0.2-0.5-0.3c-0.2-0.1-0.5-0.2-0.7-0.2
				c-0.3-0.1-0.7-0.1-1-0.1c-0.5,0-1.1,0.1-1.6,0.3c-0.5,0.2-0.9,0.5-1.2,0.8c-0.3,0.4-0.6,0.8-0.7,1.3c-0.2,0.5-0.3,1.1-0.3,1.7
				c0,0.6,0.1,1.2,0.3,1.7c0.2,0.5,0.4,0.9,0.8,1.3c0.3,0.4,0.8,0.6,1.2,0.8c0.5,0.2,1.1,0.3,1.6,0.3c0.2,0,0.5,0,0.7,0
				c0.2,0,0.4-0.1,0.6-0.1c0.2,0,0.4-0.1,0.5-0.2c0.2-0.1,0.4-0.2,0.5-0.3V0.6h-1.6c-0.1,0-0.2,0-0.2-0.1c-0.1,0-0.1-0.1-0.1-0.2
				v-0.8h3.1v3.9C-282.4,3.9-283,4.1-283.6,4.3z"/>
			<path id="Path_13" class="st1" d="M-277.5-5.7c0,0,0.1,0,0.1,0c0,0,0.1,0,0.1,0.1c0,0,0.1,0.1,0.1,0.1l5.9,7.7c0-0.1,0-0.3,0-0.4
				v-7.6h1.2V4.5h-0.7c-0.2,0-0.4-0.1-0.5-0.3l-5.9-7.7c0,0.1,0,0.2,0,0.4v7.6h-1.2V-5.7H-277.5z"/>
			<path id="Path_14" class="st1" d="M-257.5-5.9c0.4,0,0.7,0.1,1,0.2c0.3,0.1,0.6,0.3,0.8,0.5c0.2,0.2,0.4,0.4,0.5,0.7
				c0.1,0.3,0.2,0.5,0.2,0.8l-0.8,0.2c-0.2,0-0.3,0-0.4-0.2c0-0.1-0.1-0.3-0.2-0.4c-0.1-0.1-0.2-0.3-0.3-0.4
				c-0.1-0.1-0.3-0.2-0.4-0.3c-0.2-0.1-0.4-0.1-0.6-0.1c-0.2,0-0.4,0-0.6,0.1c-0.2,0.1-0.4,0.2-0.5,0.3c-0.1,0.1-0.2,0.3-0.3,0.5
				c-0.1,0.2-0.1,0.4-0.1,0.6c0,0.2,0,0.3,0.1,0.5c0,0.2,0.1,0.3,0.2,0.5c0.1,0.2,0.2,0.3,0.3,0.5c0.1,0.2,0.3,0.3,0.5,0.5l2.9,3
				c0.2-0.3,0.3-0.6,0.4-1c0.1-0.3,0.2-0.7,0.2-1c0-0.1,0-0.2,0.1-0.2c0-0.1,0.1-0.1,0.2-0.1h0.8c0,0.5-0.1,1.1-0.3,1.6
				c-0.2,0.5-0.4,1-0.7,1.5l2.1,2.2h-1.2c-0.1,0-0.2,0-0.3-0.1c-0.1,0-0.2-0.1-0.3-0.2l-1-1c-0.5,0.4-1,0.8-1.6,1
				c-0.6,0.3-1.3,0.4-1.9,0.4c-0.4,0-0.8-0.1-1.1-0.2c-0.4-0.1-0.7-0.3-1-0.5c-0.3-0.3-0.5-0.6-0.7-0.9c-0.2-0.4-0.3-0.8-0.3-1.2
				c0-0.3,0.1-0.6,0.2-0.9c0.1-0.3,0.3-0.6,0.5-0.8c0.2-0.3,0.4-0.5,0.7-0.7c0.3-0.2,0.6-0.4,0.9-0.5c-0.3-0.3-0.5-0.7-0.6-1.1
				c-0.1-0.3-0.2-0.7-0.2-1.1c0-0.3,0.1-0.7,0.2-1c0.1-0.3,0.3-0.6,0.5-0.8c0.2-0.2,0.5-0.4,0.9-0.5C-258.3-5.8-257.9-5.9-257.5-5.9
				z M-258.3,3.6c0.5,0,1-0.1,1.4-0.3c0.4-0.2,0.8-0.5,1.1-0.8l-3-3c-0.5,0.2-0.8,0.6-1.1,1c-0.3,0.4-0.4,0.8-0.4,1.2
				c0,0.5,0.2,1,0.6,1.4c0.2,0.2,0.4,0.3,0.6,0.4C-258.8,3.5-258.6,3.6-258.3,3.6L-258.3,3.6z"/>
			<path id="Path_15" class="st1" d="M-245.4-5.7h1.2c0.1,0,0.2,0,0.3,0.1c0.1,0.1,0.1,0.1,0.2,0.2l2.1,7.1c0,0.1,0.1,0.3,0.1,0.4
				s0.1,0.3,0.1,0.5c0-0.2,0.1-0.3,0.1-0.5c0-0.1,0.1-0.3,0.1-0.4l2.4-7.1c0-0.1,0.1-0.2,0.2-0.2c0.1-0.1,0.2-0.1,0.3-0.1h0.4
				c0.1,0,0.2,0,0.3,0.1c0.1,0.1,0.1,0.1,0.2,0.2l2.4,7.1c0,0.1,0.1,0.3,0.1,0.4s0.1,0.3,0.1,0.5c0-0.2,0.1-0.3,0.1-0.5
				c0-0.1,0.1-0.3,0.1-0.4l2.1-7.1c0-0.1,0.1-0.2,0.2-0.2c0.1-0.1,0.2-0.1,0.3-0.1h1.1l-3.2,10.2h-1.2l-2.6-7.8
				c-0.1-0.2-0.1-0.3-0.1-0.5c0,0.1,0,0.2-0.1,0.3c0,0.1,0,0.2-0.1,0.2l-2.6,7.8h-1.2L-245.4-5.7z"/>
			<path id="Path_16" class="st1" d="M-221.8-5.7v1.1h-4.9v3.4h4v1.1h-4v3.5h4.9v1.1h-6.3V-5.7L-221.8-5.7L-221.8-5.7z"/>
			<path id="Path_17" class="st1" d="M-218.4,4.5V-5.7h3.3c0.5,0,1.1,0.1,1.6,0.2c0.4,0.1,0.8,0.3,1.1,0.5c0.3,0.2,0.5,0.5,0.6,0.8
				c0.1,0.4,0.2,0.7,0.2,1.1c0,0.3,0,0.5-0.1,0.7c-0.1,0.2-0.2,0.5-0.4,0.6c-0.2,0.2-0.4,0.4-0.6,0.5c-0.3,0.2-0.5,0.3-0.8,0.4
				c0.6,0.1,1.2,0.4,1.7,0.8c0.4,0.4,0.6,1,0.6,1.6c0,0.4-0.1,0.8-0.2,1.2c-0.2,0.4-0.4,0.7-0.7,0.9c-0.3,0.3-0.7,0.5-1.1,0.6
				c-0.5,0.1-1,0.2-1.5,0.2L-218.4,4.5L-218.4,4.5z M-217-1.2h1.8c0.3,0,0.7,0,1-0.1c0.3-0.1,0.5-0.2,0.7-0.4
				c0.2-0.1,0.3-0.3,0.4-0.5c0.1-0.2,0.1-0.5,0.1-0.7c0-0.5-0.2-1-0.5-1.3c-0.5-0.3-1.1-0.5-1.7-0.4h-1.9L-217-1.2z M-217-0.2v3.6
				h2.2c0.3,0,0.7,0,1-0.1c0.3-0.1,0.5-0.2,0.7-0.4c0.2-0.1,0.3-0.4,0.4-0.6c0.1-0.2,0.1-0.5,0.1-0.7c0-0.5-0.2-0.9-0.5-1.3
				c-0.5-0.3-1.1-0.5-1.7-0.5L-217-0.2z"/>
		</g>
	</g>
	<g id="Group_4" transform="translate(684.783 1215)">
		<path id="Path_18" class="st2" d="M-318.3,28.1l25.5-25.5v-8.5l-33.9,34l33.9,33.9v-8.5L-318.3,28.1z"/>
		<path id="Path_19" class="st0" d="M-291.9-5.9v8.5l25.5,25.5l-25.5,25.5V62l33.9-33.9L-291.9-5.9z"/>
		<path id="Path_20" class="st2" d="M-291.9,4.8l-0.4-0.4l-0.6,0.6L-316,28.1l23.1,23.1l0.4,0.4l0.5-0.5l23.2-23.2L-291.9,4.8z
			 M-283,34.9c-0.8,0.8-1.8,1.4-2.9,1.8c-1.1,0.4-2.3,0.6-3.5,0.6h-14.6V26h4.5v7h9.6c3.2,0,4.9-1.7,4.9-4.9v-4.9h-19v-4.4h23.5v10
			c0,1.1-0.2,2.2-0.6,3.2C-281.6,33.1-282.2,34.1-283,34.9L-283,34.9z"/>
	</g>
</g>
</svg>
