<?xml version="1.0" encoding="utf-8"?>
<!-- Generator: Adobe Illustrator 21.1.0, SVG Export Plug-In . SVG Version: 6.00 Build 0)  -->
<svg version="1.1" xmlns="http://www.w3.org/2000/svg" xmlns:xlink="http://www.w3.org/1999/xlink" x="0px" y="0px"
	 viewBox="0 0 800 600" style="enable-background:new 0 0 800 600;" xml:space="preserve">
<style type="text/css">
	.st0{display:none;fill:#1E1E1E;}
	.st1{fill:#FFFFFF;}
	.st2{fill:#008200;}
	.st3{fill:#646478;}
	.st4{fill:#1E1E1E;}
</style>
<g id="Logo_branca">
</g>
<g id="Semi_branca">
	<rect class="st0" width="800" height="600"/>
	<g>
		<g>
			<path class="st1" d="M147.1,444.3H64.7v-19.1h102.1V466c0,6.3-0.9,12-2.7,16.9c-1.8,5-4.4,9.2-7.9,12.7
				c-3.4,3.5-7.6,6.1-12.7,7.9c-5,1.8-10.7,2.7-17.1,2.7H64.7v-49.5h19.7V487h41.6c14.1,0,21.2-7.1,21.2-21.4V444.3z"/>
			<path class="st1" d="M209.9,456.7h46c4,0,7.1-1.1,9.4-3.2c2.2-2.1,3.7-5.2,4.3-9.2h-68.8v61.9h-19.7v-80.9h107.5v15.5
				c0,20.4-9.9,31.7-29.8,33.8l30.8,31.7h-23.8l-31.2-31.3h-24.6V456.7z"/>
			<path class="st1" d="M404.8,425.3V466c0,6.3-0.9,12-2.7,16.9c-1.8,5-4.4,9.2-7.9,12.7c-3.4,3.5-7.6,6.1-12.7,7.9
				c-5,1.8-10.7,2.7-17.1,2.7h-67.1v-40.6c0-6.2,0.9-11.7,2.7-16.7c1.8-5,4.5-9.2,7.9-12.7c3.5-3.5,7.7-6.2,12.7-8.1
				c5-1.9,10.7-2.8,17.1-2.8H404.8z M385.1,444.3h-46.9c-4.1,0-7.5,0.3-10.2,1c-2.7,0.7-4.9,1.9-6.5,3.5c-1.6,1.7-2.8,3.9-3.5,6.6
				s-1,6.2-1,10.4v21H364c3.9,0,7.2-0.3,9.9-1c2.7-0.7,4.9-1.8,6.5-3.4c1.7-1.6,2.9-3.8,3.6-6.6c0.7-2.8,1.1-6.2,1.1-10.4V444.3z"/>
			<path class="st1" d="M419,425.3h81.2c6,0,11.5,0.9,16.5,2.7c5,1.8,9.2,4.4,12.8,7.6c3.5,3.3,6.3,7.2,8.3,11.7
				c2,4.5,2.9,9.6,2.9,15v43.8H521v-40.5c0-14.3-6.9-21.4-20.8-21.4h-61.6v61.9H419V425.3z M468.6,454.3h19.8v51.9h-19.8V454.3z"/>
			<path class="st1" d="M575.4,506.2h-19.7v-80.9h19.7V506.2z"/>
			<path class="st1" d="M700.4,506.2h-20.8c-11.2-15.3-22.1-27.7-32.8-37.5c-10.7-9.7-21.3-16.6-31.9-20.6c-0.8-0.2-1.6-0.5-2.5-0.9
				c-0.9-0.3-1.8-0.7-2.8-1.1c0.2,2.9,0.3,4.8,0.3,5.7v54.3h-19.2v-80.9h17c6.5,2.1,12.8,4.8,19,8.1c6.2,3.3,12.3,7.1,18.2,11.3
				c5.9,4.2,11.6,8.9,17.1,13.9c5.5,5,10.8,10.3,15.9,15.7l3.6,3.8c-0.2-2.4-0.3-4.2-0.3-5.3v-47.5h19.2V506.2z"/>
			<path class="st1" d="M735.3,506.2h-19.7v-80.9h19.7V506.2z"/>
		</g>
		<g>
			<path class="st1" d="M247.4,549.2c0,2.4-0.4,4.5-1.1,6.5c-0.8,1.9-1.8,3.6-3.2,5c-1.4,1.4-3,2.5-4.9,3.2c-1.9,0.8-4,1.1-6.4,1.1
				H220v-31.6h11.8c2.3,0,4.4,0.4,6.4,1.1c1.9,0.8,3.6,1.8,4.9,3.2c1.4,1.4,2.4,3.1,3.2,5C247,544.7,247.4,546.8,247.4,549.2z
				 M243,549.2c0-1.9-0.3-3.7-0.8-5.2c-0.5-1.5-1.3-2.8-2.3-3.9c-1-1.1-2.1-1.9-3.5-2.4c-1.4-0.6-2.9-0.8-4.6-0.8h-7.5v24.7h7.5
				c1.7,0,3.3-0.3,4.6-0.8c1.4-0.6,2.6-1.4,3.5-2.4c1-1.1,1.7-2.3,2.3-3.9C242.8,552.9,243,551.1,243,549.2z"/>
			<path class="st1" d="M277.5,533.4v3.5h-15.2v10.5h12.3v3.4h-12.3v10.8h15.2l0,3.5H258v-31.6H277.5z"/>
			<path class="st1" d="M304.1,538.3c-0.1,0.2-0.3,0.4-0.4,0.5c-0.2,0.1-0.3,0.2-0.6,0.2c-0.3,0-0.5-0.1-0.9-0.4
				c-0.3-0.3-0.8-0.5-1.3-0.8c-0.5-0.3-1.1-0.6-1.8-0.8c-0.7-0.3-1.6-0.4-2.6-0.4c-1,0-1.8,0.1-2.5,0.4c-0.7,0.3-1.3,0.6-1.8,1
				c-0.5,0.4-0.9,1-1.1,1.6c-0.3,0.6-0.4,1.2-0.4,1.9c0,0.9,0.2,1.6,0.7,2.2c0.4,0.6,1,1.1,1.7,1.5c0.7,0.4,1.5,0.8,2.4,1.1
				c0.9,0.3,1.8,0.6,2.8,0.9c0.9,0.3,1.9,0.7,2.8,1.1c0.9,0.4,1.7,0.9,2.4,1.5c0.7,0.6,1.3,1.4,1.7,2.3c0.4,0.9,0.7,2,0.7,3.3
				c0,1.4-0.2,2.7-0.7,3.9c-0.5,1.2-1.2,2.3-2.1,3.2c-0.9,0.9-2,1.6-3.3,2.1c-1.3,0.5-2.8,0.8-4.5,0.8c-2.1,0-3.9-0.4-5.6-1.1
				c-1.7-0.7-3.1-1.7-4.3-3l1.2-2c0.1-0.2,0.3-0.3,0.4-0.4c0.2-0.1,0.4-0.2,0.6-0.2c0.2,0,0.4,0.1,0.7,0.2c0.2,0.2,0.5,0.3,0.8,0.6
				c0.3,0.2,0.7,0.5,1.1,0.8c0.4,0.3,0.8,0.5,1.4,0.8c0.5,0.2,1.1,0.4,1.7,0.6c0.6,0.2,1.4,0.2,2.2,0.2c1,0,1.9-0.1,2.7-0.4
				c0.8-0.3,1.5-0.7,2-1.2c0.6-0.5,1-1.1,1.3-1.8c0.3-0.7,0.4-1.5,0.4-2.4c0-1-0.2-1.7-0.7-2.4c-0.4-0.6-1-1.1-1.7-1.5
				c-0.7-0.4-1.5-0.8-2.4-1c-0.9-0.3-1.8-0.6-2.8-0.9c-0.9-0.3-1.9-0.7-2.8-1c-0.9-0.4-1.7-0.9-2.4-1.5c-0.7-0.6-1.3-1.4-1.7-2.4
				c-0.4-0.9-0.7-2.1-0.7-3.5c0-1.1,0.2-2.2,0.7-3.2c0.4-1,1.1-2,1.9-2.8c0.8-0.8,1.9-1.5,3.1-1.9c1.2-0.5,2.6-0.7,4.2-0.7
				c1.8,0,3.4,0.3,4.8,0.8c1.4,0.6,2.7,1.4,3.8,2.4L304.1,538.3z"/>
			<path class="st1" d="M320.5,565h-4.3v-31.6h4.3V565z"/>
			<path class="st1" d="M353.6,564.5c-1.8,0.6-3.8,0.8-5.9,0.8c-2.5,0-4.8-0.4-6.9-1.2c-2-0.8-3.8-1.9-5.2-3.3
				c-1.4-1.4-2.6-3.1-3.3-5.1c-0.8-2-1.2-4.2-1.2-6.6c0-2.4,0.4-4.6,1.1-6.6c0.8-2,1.8-3.7,3.2-5.1c1.4-1.4,3.1-2.5,5.1-3.3
				c2-0.8,4.2-1.2,6.7-1.2c1.3,0,2.4,0.1,3.5,0.3c1.1,0.2,2.1,0.4,3,0.8c0.9,0.3,1.8,0.8,2.5,1.3c0.8,0.5,1.5,1,2.2,1.7l-1.2,1.9
				c-0.2,0.3-0.4,0.5-0.7,0.6c-0.3,0.1-0.6,0-1-0.2c-0.4-0.2-0.8-0.5-1.2-0.8c-0.5-0.3-1-0.6-1.7-0.8c-0.7-0.3-1.4-0.5-2.3-0.7
				c-0.9-0.2-1.9-0.3-3.2-0.3c-1.8,0-3.4,0.3-4.8,0.9c-1.4,0.6-2.7,1.4-3.7,2.5c-1,1.1-1.8,2.4-2.3,3.9c-0.5,1.5-0.8,3.3-0.8,5.2
				c0,2,0.3,3.8,0.8,5.3c0.6,1.6,1.4,2.9,2.4,4c1.1,1.1,2.3,1.9,3.8,2.5s3.2,0.9,5.1,0.9c0.7,0,1.4,0,2.1-0.1
				c0.6-0.1,1.3-0.2,1.8-0.4c0.6-0.2,1.2-0.3,1.7-0.6c0.5-0.2,1.1-0.5,1.7-0.8v-7h-4.9c-0.3,0-0.5-0.1-0.7-0.2
				c-0.2-0.2-0.3-0.4-0.3-0.6v-2.4h9.7v12.1C357.1,563.1,355.4,563.9,353.6,564.5z"/>
			<path class="st1" d="M372.4,533.4c0.1,0,0.3,0.1,0.4,0.1c0.1,0.1,0.2,0.1,0.3,0.2c0.1,0.1,0.2,0.2,0.3,0.4l18.3,23.8
				c0-0.4-0.1-0.8-0.1-1.1c0-0.4,0-0.7,0-1v-22.4h3.8V565h-2.1c-0.3,0-0.6-0.1-0.8-0.2c-0.2-0.1-0.5-0.3-0.7-0.6l-18.3-23.8
				c0,0.4,0.1,0.7,0.1,1.1c0,0.4,0,0.7,0,1V565h-3.8v-31.6h2.2C372.1,533.4,372.3,533.4,372.4,533.4z"/>
			<path class="st1" d="M434.2,533c1.2,0,2.2,0.2,3.2,0.6c1,0.4,1.8,0.9,2.5,1.5s1.2,1.3,1.6,2.2c0.4,0.8,0.6,1.7,0.7,2.5l-2.5,0.5
				c-0.5,0.1-0.8-0.1-1.1-0.7c-0.1-0.4-0.3-0.8-0.5-1.2c-0.2-0.4-0.5-0.8-0.9-1.1c-0.4-0.3-0.8-0.6-1.3-0.8
				c-0.5-0.2-1.1-0.3-1.8-0.3c-0.7,0-1.4,0.1-2,0.4c-0.6,0.2-1.1,0.6-1.5,1c-0.4,0.4-0.7,0.9-1,1.5c-0.2,0.6-0.3,1.2-0.3,1.8
				c0,0.5,0.1,1,0.2,1.5c0.1,0.5,0.3,0.9,0.6,1.4c0.3,0.5,0.6,1,1,1.5c0.4,0.5,0.9,1,1.4,1.6l9.1,9.2c0.6-1,1-2,1.3-3.1
				c0.3-1.1,0.6-2.2,0.7-3.2c0-0.3,0.1-0.5,0.3-0.7c0.1-0.2,0.4-0.2,0.6-0.2h2.4c0,1.7-0.3,3.4-0.8,5c-0.5,1.6-1.3,3.2-2.2,4.6
				l6.6,6.7h-3.8c-0.4,0-0.8-0.1-1-0.2c-0.3-0.1-0.6-0.3-0.9-0.6l-3.2-3.2c-1.4,1.3-3,2.4-4.8,3.2c-1.8,0.8-3.8,1.2-5.9,1.2
				c-1.2,0-2.3-0.2-3.5-0.6c-1.1-0.4-2.1-1-3-1.7c-0.9-0.8-1.6-1.7-2.2-2.8c-0.5-1.1-0.8-2.3-0.8-3.7c0-1,0.2-2,0.5-2.9
				c0.3-0.9,0.8-1.8,1.4-2.5c0.6-0.8,1.3-1.5,2.2-2.1c0.8-0.6,1.8-1.1,2.8-1.6c-0.9-1.1-1.6-2.2-2-3.3c-0.4-1.1-0.6-2.2-0.6-3.3
				c0-1.1,0.2-2.1,0.6-3c0.4-0.9,1-1.8,1.7-2.5c0.7-0.7,1.6-1.3,2.7-1.7C431.7,533.2,432.9,533,434.2,533z M431.6,562.2
				c1.6,0,3.1-0.3,4.4-0.9c1.3-0.6,2.5-1.4,3.5-2.4l-9.3-9.4c-1.6,0.8-2.7,1.8-3.5,3c-0.8,1.2-1.2,2.4-1.2,3.8c0,1,0.2,1.8,0.5,2.5
				c0.4,0.7,0.8,1.3,1.4,1.8c0.6,0.5,1.2,0.9,2,1.1C430.1,562,430.8,562.2,431.6,562.2z"/>
			<path class="st1" d="M471.7,533.4h3.6c0.4,0,0.7,0.1,1,0.3c0.3,0.2,0.4,0.4,0.5,0.7l6.5,22c0.1,0.4,0.2,0.8,0.3,1.3
				c0.1,0.5,0.2,0.9,0.3,1.4c0.1-0.5,0.2-1,0.3-1.4c0.1-0.5,0.2-0.9,0.4-1.3l7.4-22c0.1-0.3,0.3-0.5,0.5-0.7
				c0.3-0.2,0.6-0.3,0.9-0.3h1.2c0.4,0,0.7,0.1,0.9,0.3c0.2,0.2,0.4,0.4,0.5,0.7l7.4,22c0.1,0.4,0.3,0.8,0.4,1.2
				c0.1,0.4,0.2,0.9,0.3,1.4c0.1-0.5,0.2-0.9,0.3-1.4c0.1-0.4,0.2-0.9,0.3-1.2l6.6-22c0.1-0.3,0.2-0.5,0.5-0.7s0.6-0.3,0.9-0.3h3.3
				l-9.9,31.6h-3.8l-8-24.1c-0.2-0.5-0.3-1-0.4-1.6c-0.1,0.3-0.1,0.6-0.2,0.8c-0.1,0.3-0.1,0.5-0.2,0.7l-8.1,24.1h-3.8L471.7,533.4z
				"/>
			<path class="st1" d="M544.7,533.4v3.5h-15.2v10.5h12.3v3.4h-12.3v10.8h15.2l0,3.5h-19.5v-31.6H544.7z"/>
			<path class="st1" d="M555.1,565v-31.6h10.1c1.9,0,3.6,0.2,5,0.6c1.4,0.4,2.6,0.9,3.5,1.6c0.9,0.7,1.6,1.6,2,2.6
				c0.4,1,0.6,2.2,0.6,3.5c0,0.8-0.1,1.5-0.4,2.3c-0.2,0.7-0.6,1.4-1.1,2s-1.1,1.2-1.8,1.7c-0.7,0.5-1.6,0.9-2.6,1.2
				c2.3,0.5,4.1,1.3,5.2,2.5c1.2,1.2,1.8,2.8,1.8,4.8c0,1.3-0.2,2.6-0.7,3.7c-0.5,1.1-1.2,2.1-2.2,2.8c-0.9,0.8-2.1,1.4-3.5,1.8
				c-1.4,0.4-3,0.7-4.7,0.7H555.1z M559.4,547.5h5.7c1.2,0,2.3-0.1,3.1-0.4c0.9-0.3,1.6-0.6,2.2-1.1c0.6-0.5,1-1,1.3-1.7
				c0.3-0.7,0.4-1.4,0.4-2.2c0-1.9-0.6-3.2-1.7-4.1c-1.1-0.9-2.9-1.3-5.2-1.3h-5.8V547.5z M559.4,550.6v11h6.8
				c1.2,0,2.3-0.1,3.2-0.4c0.9-0.3,1.6-0.7,2.2-1.2c0.6-0.5,1-1.1,1.2-1.8c0.3-0.7,0.4-1.5,0.4-2.3c0-1.6-0.6-2.9-1.7-3.9
				c-1.2-0.9-2.9-1.4-5.2-1.4H559.4z"/>
		</g>
		<polygon class="st2" points="266.6,209.1 397.6,78.1 397.6,34.6 223.2,209.1 397.6,383.5 397.6,340 		"/>
		<polygon class="st1" points="402.4,34.6 402.4,78.1 533.4,209.1 402.4,340 402.4,383.5 576.8,209.1 		"/>
		<path class="st2" d="M402.4,89.6l-1.9-1.9l-3,3L278.8,209.4l118.7,118.7l2.3,2.3l2.5-2.5l119.2-119.2L402.4,89.6z M448.2,244.4
			c-4.1,4.1-9.1,7.2-15,9.4c-5.4,2-11.5,3-18.2,3.2l-12.5,0l-4.9,0l-57.8,0l0-58.7l23.2,0l0,35.9l34.6,0l4.9,0l9.9,0
			c16.7,0,25.1-8.5,25.1-25.4l0-25.2l-35,0l-4.9,0l-57.8,0l0-22.6l57.8,0l4.9,0l58.3,0l0,51.6c-0.3,6.1-1.3,11.7-3.1,16.7
			C455.4,235.3,452.3,240.3,448.2,244.4z"/>
	</g>
</g>
<g id="Logo_cinza">
</g>
<g id="Logo_preta">
</g>
<g id="Logo_verde">
</g>
<g id="Logo_original">
</g>
</svg>
