<?xml version="1.0" encoding="utf-8"?>
<!-- Generator: Adobe Illustrator 21.1.0, SVG Export Plug-In . SVG Version: 6.00 Build 0)  -->
<svg version="1.1" xmlns="http://www.w3.org/2000/svg" xmlns:xlink="http://www.w3.org/1999/xlink" x="0px" y="0px"
	 viewBox="0 0 400 400" style="enable-background:new 0 0 400 400;" xml:space="preserve">
<style type="text/css">
	.st0{fill:none;}
	.st1{fill:#008200;}
	.st2{fill:#1E1E1E;}
	.st3{fill:#FFFFFF;}
	.st4{fill:#646478;}
</style>
<g id="Favicon">
</g>
<g id="Webclip">
</g>
<g id="Simbolo">
	<g>
		<polygon class="st1" points="66.6,200 197.6,69.1 197.6,25.6 23.2,200 197.6,374.4 197.6,330.9 		"/>
		<polygon class="st2" points="202.4,25.6 202.4,69.1 333.4,200 202.4,330.9 202.4,374.4 376.8,200 		"/>
		<path class="st1" d="M202.4,80.5l-1.9-1.9l-3,3L78.8,200.3L197.6,319l2.3,2.3l2.5-2.5l119.2-119.2L202.4,80.5z M248.2,235.4
			c-4.1,4.1-9.1,7.2-15,9.4c-5.4,2-11.5,3-18.2,3.2l-12.5,0l-4.9,0l-57.8,0l0-58.7l23.2,0l0,35.9l34.6,0l4.9,0l9.9,0
			c16.7,0,25.1-8.5,25.1-25.4l0-25.2l-35,0l-4.9,0l-57.8,0l0-22.6l57.8,0l4.9,0l58.3,0l0,51.6c-0.3,6.1-1.3,11.7-3.1,16.7
			C255.4,226.3,252.3,231.3,248.2,235.4z"/>
	</g>
</g>
<g id="Logo_branca">
</g>
<g id="Semi_branca">
</g>
<g id="Logo_cinza">
</g>
<g id="Logo_preta">
</g>
<g id="Logo_verde">
</g>
<g id="Logo_original">
</g>
</svg>
